<mxfile host="Electron" agent="Mozilla/5.0 (X11; Linux x86_64) AppleWebKit/537.36 (KHTML, like Gecko) draw.io/28.2.5 Chrome/138.0.7204.251 Electron/37.6.1 Safari/537.36" version="28.2.5">
  <diagram name="第 1 页" id="A2wYnKDMZFF023bxGnZ8">
    <mxGraphModel dx="2025" dy="1576" grid="1" gridSize="10" guides="1" tooltips="1" connect="1" arrows="1" fold="1" page="1" pageScale="1" pageWidth="827" pageHeight="1169" math="0" shadow="0">
      <root>
        <mxCell id="0" />
        <mxCell id="1" parent="0" />
        <mxCell id="lc5mf7nCTQjh2SExQ85K-13" value="" style="rounded=0;whiteSpace=wrap;html=1;" parent="1" vertex="1">
          <mxGeometry x="890" y="50" width="1030" height="380" as="geometry" />
        </mxCell>
        <mxCell id="1i7iyDztXm2SfSE6uJK3-13" value="&lt;div&gt;PropertiesPropertySourceLoader&lt;/div&gt;" style="html=1;whiteSpace=wrap;fontSize=20;verticalAlign=middle;align=center;fillColor=#ffe6cc;strokeColor=#d79b00;" parent="1" vertex="1">
          <mxGeometry x="990" y="270" width="330" height="51" as="geometry" />
        </mxCell>
        <mxCell id="mEVcy1A5f8fxIJjsYzMS-1" value="«interface»&lt;br&gt;PropertySourceLoader" style="html=1;whiteSpace=wrap;fontSize=20;fontStyle=0;fillColor=#ffe6cc;strokeColor=#d79b00;" parent="1" vertex="1">
          <mxGeometry x="1250" y="100" width="310" height="50" as="geometry" />
        </mxCell>
        <mxCell id="fyX_qp0nPDoWCMaDwxBh-1" value="spring-boot&lt;div&gt;&lt;div&gt;&lt;br&gt;&lt;/div&gt;&lt;/div&gt;" style="shape=module;align=left;spacingLeft=20;align=center;verticalAlign=top;whiteSpace=wrap;html=1;fontSize=20;fillColor=#ffe6cc;strokeColor=#d79b00;" parent="1" vertex="1">
          <mxGeometry x="1700" y="100" width="160" height="50" as="geometry" />
        </mxCell>
        <mxCell id="fyX_qp0nPDoWCMaDwxBh-7" value="" style="endArrow=block;dashed=1;endFill=0;endSize=12;html=1;rounded=0;exitX=0.5;exitY=0;exitDx=0;exitDy=0;entryX=0.5;entryY=1;entryDx=0;entryDy=0;" parent="1" source="1i7iyDztXm2SfSE6uJK3-13" target="mEVcy1A5f8fxIJjsYzMS-1" edge="1">
          <mxGeometry width="160" relative="1" as="geometry">
            <mxPoint x="1270" y="230" as="sourcePoint" />
            <mxPoint x="1460" y="170" as="targetPoint" />
          </mxGeometry>
        </mxCell>
        <mxCell id="fyX_qp0nPDoWCMaDwxBh-10" value="&lt;div&gt;YamlPropertySourceLoader&lt;/div&gt;" style="html=1;whiteSpace=wrap;fontSize=20;verticalAlign=middle;align=center;fillColor=#ffe6cc;strokeColor=#d79b00;" parent="1" vertex="1">
          <mxGeometry x="1530" y="270" width="300" height="51" as="geometry" />
        </mxCell>
        <mxCell id="fyX_qp0nPDoWCMaDwxBh-11" value="" style="endArrow=block;dashed=1;endFill=0;endSize=12;html=1;rounded=0;exitX=0.5;exitY=0;exitDx=0;exitDy=0;entryX=0.5;entryY=1;entryDx=0;entryDy=0;" parent="1" source="fyX_qp0nPDoWCMaDwxBh-10" target="mEVcy1A5f8fxIJjsYzMS-1" edge="1">
          <mxGeometry width="160" relative="1" as="geometry">
            <mxPoint x="1850" y="260" as="sourcePoint" />
            <mxPoint x="2010" y="260" as="targetPoint" />
          </mxGeometry>
        </mxCell>
        <mxCell id="fyX_qp0nPDoWCMaDwxBh-18" value="META-INF/spring.factories中加载的PropertySourceLoader实现" style="text;html=1;align=center;verticalAlign=middle;whiteSpace=wrap;rounded=0;fontSize=20;fontStyle=1" parent="1" vertex="1">
          <mxGeometry x="1033.75" y="370" width="742.5" height="30" as="geometry" />
        </mxCell>
      </root>
    </mxGraphModel>
  </diagram>
</mxfile>
